<svg xmlns="http://www.w3.org/2000/svg" xmlns:xlink="http://www.w3.org/1999/xlink" contentStyleType="text/css" data-diagram-type="CLASS" height="1055px" preserveAspectRatio="none" style="width:1142px;height:1055px;background:#FFFFFF;" version="1.1" viewBox="0 0 1142 1055" width="1142px" zoomAndPan="magnify"><title>Premjerl&#299;gas fant&#257;zijas r&#299;ks &#8212; UML dom&#275;na modelis</title><defs/><g><g class="title" data-source-line="1"><text fill="#000000" font-family="sans-serif" font-size="14" font-weight="bold" lengthAdjust="spacing" textLength="408.6182" x="359.6909" y="22.9951">Premjerl&#299;gas fant&#257;zijas r&#299;ks &#8212; UML dom&#275;na modelis</text></g><!--cluster Fant?zijas kodols--><g class="cluster" data-qualified-name="Fant.zijas kodols" data-source-line="14" id="ent0003"><path d="M8.5,173.4769 L146.7178,173.4769 A3.75,3.75 0 0 1 149.2178,175.9769 L156.2178,195.7738 L1132.5,195.7738 A2.5,2.5 0 0 1 1135,198.2738 L1135,1046.0269 A2.5,2.5 0 0 1 1132.5,1048.5269 L8.5,1048.5269 A2.5,2.5 0 0 1 6,1046.0269 L6,175.9769 A2.5,2.5 0 0 1 8.5,173.4769" fill="none" style="stroke:#000000;stroke-width:1.5;"/><line style="stroke:#000000;stroke-width:1.5;" x1="6" x2="156.2178" y1="195.7738" y2="195.7738"/><text fill="#000000" font-family="sans-serif" font-size="14" font-weight="bold" lengthAdjust="spacing" textLength="137.2178" x="10" y="188.472">Fant&#257;zijas kodols</text></g><!--cluster Komandas un kalend?rs--><g class="cluster" data-qualified-name="Fant.zijas kodols.Komandas un kalend.rs" data-source-line="22" id="ent0005"><path d="M661.5,703.4469 L852.1768,703.4469 A3.75,3.75 0 0 1 854.6768,705.9469 L861.6768,725.7438 L1065.5,725.7438 A2.5,2.5 0 0 1 1068,728.2438 L1068,1022.0269 A2.5,2.5 0 0 1 1065.5,1024.5269 L661.5,1024.5269 A2.5,2.5 0 0 1 659,1022.0269 L659,705.9469 A2.5,2.5 0 0 1 661.5,703.4469" fill="none" style="stroke:#000000;stroke-width:1.5;"/><line style="stroke:#000000;stroke-width:1.5;" x1="659" x2="861.6768" y1="725.7438" y2="725.7438"/><text fill="#000000" font-family="sans-serif" font-size="14" font-weight="bold" lengthAdjust="spacing" textLength="189.6768" x="663" y="718.442">Komandas un kalend&#257;rs</text></g><!--cluster Sast?vs un izv?les--><g class="cluster" data-qualified-name="Fant.zijas kodols.Sast.vs un izv.les" data-source-line="42" id="ent0009"><path d="M32.5,216.4769 L178.8389,216.4769 A3.75,3.75 0 0 1 181.3389,218.9769 L188.3389,238.7738 L598.5,238.7738 A2.5,2.5 0 0 1 601,241.2738 L601,518.7569 A2.5,2.5 0 0 1 598.5,521.2569 L32.5,521.2569 A2.5,2.5 0 0 1 30,518.7569 L30,218.9769 A2.5,2.5 0 0 1 32.5,216.4769" fill="none" style="stroke:#000000;stroke-width:1.5;"/><line style="stroke:#000000;stroke-width:1.5;" x1="30" x2="188.3389" y1="238.7738" y2="238.7738"/><text fill="#000000" font-family="sans-serif" font-size="14" font-weight="bold" lengthAdjust="spacing" textLength="145.3389" x="34" y="231.472">Sast&#257;vs un izv&#275;les</text></g><!--cluster Prognozes--><g class="cluster" data-qualified-name="Fant.zijas kodols.Prognozes" data-source-line="67" id="ent0014"><path d="M632.5,216.4769 L715.8662,216.4769 A3.75,3.75 0 0 1 718.3662,218.9769 L725.3662,238.7738 L1108.5,238.7738 A2.5,2.5 0 0 1 1111,241.2738 L1111,518.7569 A2.5,2.5 0 0 1 1108.5,521.2569 L632.5,521.2569 A2.5,2.5 0 0 1 630,518.7569 L630,218.9769 A2.5,2.5 0 0 1 632.5,216.4769" fill="none" style="stroke:#000000;stroke-width:1.5;"/><line style="stroke:#000000;stroke-width:1.5;" x1="630" x2="725.3662" y1="238.7738" y2="238.7738"/><text fill="#000000" font-family="sans-serif" font-size="14" font-weight="bold" lengthAdjust="spacing" textLength="82.3662" x="634" y="231.472">Prognozes</text></g><!--class Player--><g class="entity" data-qualified-name="Fant.zijas kodols.Player" data-source-line="15" id="ent0004"><rect fill="#F1F1F1" height="113.1875" rx="2.5" ry="2.5" style="stroke:#181818;stroke-width:0.5;" width="127.4248" x="689.29" y="565.2569"/><ellipse cx="718.3674" cy="581.2569" fill="#ADD1B2" rx="11" ry="11" style="stroke:#181818;stroke-width:1;"/><path d="M721.3362,586.8975 Q720.7581,587.1944 720.1174,587.335 Q719.4768,587.4913 718.7737,587.4913 Q716.2737,587.4913 714.9456,585.8506 Q713.6331,584.1944 713.6331,581.0694 Q713.6331,577.9444 714.9456,576.2881 Q716.2737,574.6319 718.7737,574.6319 Q719.4768,574.6319 720.1174,574.7881 Q720.7737,574.9444 721.3362,575.2413 L721.3362,577.96 Q720.7112,577.3819 720.1174,577.1163 Q719.5237,576.835 718.8987,576.835 Q717.5549,576.835 716.8674,577.9131 Q716.1799,578.9756 716.1799,581.0694 Q716.1799,583.1631 716.8674,584.2413 Q717.5549,585.3038 718.8987,585.3038 Q719.5237,585.3038 720.1174,585.0381 Q720.7112,584.7569 721.3362,584.1788 L721.3362,586.8975 Z " fill="#000000"/><text fill="#000000" font-family="sans-serif" font-size="14" lengthAdjust="spacing" textLength="64.1416" x="735.4958" y="586.1036">Sp&#275;l&#275;t&#257;js</text><line style="stroke:#181818;stroke-width:0.5;" x1="690.29" x2="815.7148" y1="597.2569" y2="597.2569"/><text fill="#000000" font-family="sans-serif" font-size="14" lengthAdjust="spacing" textLength="52.165" x="695.29" y="614.252">+id: Int</text><text fill="#000000" font-family="sans-serif" font-size="14" lengthAdjust="spacing" textLength="101.4795" x="695.29" y="630.5489">+v&#257;rds: String</text><text fill="#000000" font-family="sans-serif" font-size="14" lengthAdjust="spacing" textLength="115.4248" x="695.29" y="646.8457">+poz&#299;cija: String</text><text fill="#000000" font-family="sans-serif" font-size="14" lengthAdjust="spacing" textLength="111.7471" x="695.29" y="663.1426">+cena: Decimal</text><line style="stroke:#181818;stroke-width:0.5;" x1="690.29" x2="815.7148" y1="670.4444" y2="670.4444"/></g><!--class Team--><g class="entity" data-qualified-name="Fant.zijas kodols.Komandas un kalend.rs.Team" data-source-line="23" id="ent0006"><rect fill="#F1F1F1" height="96.8906" rx="2.5" ry="2.5" style="stroke:#181818;stroke-width:0.5;" width="187.3213" x="675.34" y="738.4469"/><ellipse cx="731.5998" cy="754.4469" fill="#ADD1B2" rx="11" ry="11" style="stroke:#181818;stroke-width:1;"/><path d="M734.5685,760.0875 Q733.9904,760.3844 733.3498,760.525 Q732.7091,760.6813 732.006,760.6813 Q729.506,760.6813 728.1779,759.0406 Q726.8654,757.3844 726.8654,754.2594 Q726.8654,751.1344 728.1779,749.4781 Q729.506,747.8219 732.006,747.8219 Q732.7091,747.8219 733.3498,747.9781 Q734.006,748.1344 734.5685,748.4313 L734.5685,751.15 Q733.9435,750.5719 733.3498,750.3063 Q732.756,750.025 732.131,750.025 Q730.7873,750.025 730.0998,751.1031 Q729.4123,752.1656 729.4123,754.2594 Q729.4123,756.3531 730.0998,757.4313 Q730.7873,758.4938 732.131,758.4938 Q732.756,758.4938 733.3498,758.2281 Q733.9435,757.9469 734.5685,757.3688 L734.5685,760.0875 Z " fill="#000000"/><text fill="#000000" font-family="sans-serif" font-size="14" lengthAdjust="spacing" textLength="66.3018" x="752.0998" y="759.2936">Komanda</text><line style="stroke:#181818;stroke-width:0.5;" x1="676.34" x2="861.6613" y1="770.4469" y2="770.4469"/><text fill="#000000" font-family="sans-serif" font-size="14" lengthAdjust="spacing" textLength="52.165" x="681.34" y="787.442">+id: Int</text><text fill="#000000" font-family="sans-serif" font-size="14" lengthAdjust="spacing" textLength="142.7754" x="681.34" y="803.7389">+nosaukums: String</text><text fill="#000000" font-family="sans-serif" font-size="14" lengthAdjust="spacing" textLength="175.3213" x="681.34" y="820.0357">+&#299;saisNosaukums: String</text><line style="stroke:#181818;stroke-width:0.5;" x1="676.34" x2="861.6613" y1="827.3375" y2="827.3375"/></g><!--class GameWeek--><g class="entity" data-qualified-name="Fant.zijas kodols.Komandas un kalend.rs.GameWeek" data-source-line="29" id="ent0007"><rect fill="#F1F1F1" height="80.5938" rx="2.5" ry="2.5" style="stroke:#181818;stroke-width:0.5;" width="154.6045" x="897.7" y="746.5969"/><ellipse cx="928.1802" cy="762.5969" fill="#ADD1B2" rx="11" ry="11" style="stroke:#181818;stroke-width:1;"/><path d="M931.1489,768.2375 Q930.5708,768.5344 929.9302,768.675 Q929.2896,768.8313 928.5864,768.8313 Q926.0864,768.8313 924.7583,767.1906 Q923.4458,765.5344 923.4458,762.4094 Q923.4458,759.2844 924.7583,757.6281 Q926.0864,755.9719 928.5864,755.9719 Q929.2896,755.9719 929.9302,756.1281 Q930.5864,756.2844 931.1489,756.5813 L931.1489,759.3 Q930.5239,758.7219 929.9302,758.4563 Q929.3364,758.175 928.7114,758.175 Q927.3677,758.175 926.6802,759.2531 Q925.9927,760.3156 925.9927,762.4094 Q925.9927,764.5031 926.6802,765.5813 Q927.3677,766.6438 928.7114,766.6438 Q929.3364,766.6438 929.9302,766.3781 Q930.5239,766.0969 931.1489,765.5188 L931.1489,768.2375 Z " fill="#000000"/><text fill="#000000" font-family="sans-serif" font-size="14" lengthAdjust="spacing" textLength="88.2041" x="945.6202" y="767.4436">Sp&#275;&#316;uNed&#275;&#316;a</text><line style="stroke:#181818;stroke-width:0.5;" x1="898.7" x2="1051.3045" y1="778.5969" y2="778.5969"/><text fill="#000000" font-family="sans-serif" font-size="14" lengthAdjust="spacing" textLength="92.6953" x="903.7" y="795.592">+numurs: Int</text><text fill="#000000" font-family="sans-serif" font-size="14" lengthAdjust="spacing" textLength="142.6045" x="903.7" y="811.8889">+termi&#326;&#353;: DateTime</text><line style="stroke:#181818;stroke-width:0.5;" x1="898.7" x2="1051.3045" y1="819.1906" y2="819.1906"/></g><!--class Fixture--><g class="entity" data-qualified-name="Fant.zijas kodols.Komandas un kalend.rs.Fixture" data-source-line="34" id="ent0008"><rect fill="#F1F1F1" height="113.1875" rx="2.5" ry="2.5" style="stroke:#181818;stroke-width:0.5;" width="154.8369" x="897.58" y="895.3369"/><ellipse cx="951.3036" cy="911.3369" fill="#ADD1B2" rx="11" ry="11" style="stroke:#181818;stroke-width:1;"/><path d="M954.2724,916.9775 Q953.6943,917.2744 953.0536,917.415 Q952.413,917.5713 951.7099,917.5713 Q949.2099,917.5713 947.8818,915.9306 Q946.5693,914.2744 946.5693,911.1494 Q946.5693,908.0244 947.8818,906.3681 Q949.2099,904.7119 951.7099,904.7119 Q952.413,904.7119 953.0536,904.8681 Q953.7099,905.0244 954.2724,905.3213 L954.2724,908.04 Q953.6474,907.4619 953.0536,907.1963 Q952.4599,906.915 951.8349,906.915 Q950.4911,906.915 949.8036,907.9931 Q949.1161,909.0556 949.1161,911.1494 Q949.1161,913.2431 949.8036,914.3213 Q950.4911,915.3838 951.8349,915.3838 Q952.4599,915.3838 953.0536,915.1181 Q953.6474,914.8369 954.2724,914.2588 L954.2724,916.9775 Z " fill="#000000"/><text fill="#000000" font-family="sans-serif" font-size="14" lengthAdjust="spacing" textLength="38.8896" x="971.8036" y="916.1836">Sp&#275;le</text><line style="stroke:#181818;stroke-width:0.5;" x1="898.58" x2="1051.4169" y1="927.3369" y2="927.3369"/><text fill="#000000" font-family="sans-serif" font-size="14" lengthAdjust="spacing" textLength="52.165" x="903.58" y="944.332">+id: Int</text><text fill="#000000" font-family="sans-serif" font-size="14" lengthAdjust="spacing" textLength="142.8369" x="903.58" y="960.6289">+s&#257;kums: DateTime</text><text fill="#000000" font-family="sans-serif" font-size="14" lengthAdjust="spacing" textLength="123.6484" x="903.58" y="976.9257">+m&#257;jinieki: Team</text><text fill="#000000" font-family="sans-serif" font-size="14" lengthAdjust="spacing" textLength="92.251" x="903.58" y="993.2226">+viesi: Team</text><line style="stroke:#181818;stroke-width:0.5;" x1="898.58" x2="1051.4169" y1="1000.5244" y2="1000.5244"/></g><!--class Squad--><g class="entity" data-qualified-name="Fant.zijas kodols.Sast.vs un izv.les.Squad" data-source-line="43" id="ent0010"><rect fill="#F1F1F1" height="96.8906" rx="2.5" ry="2.5" style="stroke:#181818;stroke-width:0.5;" width="154.7754" x="330.61" y="408.3669"/><ellipse cx="376.5441" cy="424.3669" fill="#ADD1B2" rx="11" ry="11" style="stroke:#181818;stroke-width:1;"/><path d="M379.5128,430.0075 Q378.9347,430.3044 378.2941,430.445 Q377.6535,430.6013 376.9503,430.6013 Q374.4503,430.6013 373.1222,428.9606 Q371.8097,427.3044 371.8097,424.1794 Q371.8097,421.0544 373.1222,419.3981 Q374.4503,417.7419 376.9503,417.7419 Q377.6535,417.7419 378.2941,417.8981 Q378.9503,418.0544 379.5128,418.3513 L379.5128,421.07 Q378.8878,420.4919 378.2941,420.2263 Q377.7003,419.945 377.0753,419.945 Q375.7316,419.945 375.0441,421.0231 Q374.3566,422.0856 374.3566,424.1794 Q374.3566,426.2731 375.0441,427.3513 Q375.7316,428.4138 377.0753,428.4138 Q377.7003,428.4138 378.2941,428.1481 Q378.8878,427.8669 379.5128,427.2888 L379.5128,430.0075 Z " fill="#000000"/><text fill="#000000" font-family="sans-serif" font-size="14" lengthAdjust="spacing" textLength="54.4072" x="397.0441" y="429.2136">Sast&#257;vs</text><line style="stroke:#181818;stroke-width:0.5;" x1="331.61" x2="484.3854" y1="440.3669" y2="440.3669"/><text fill="#000000" font-family="sans-serif" font-size="14" lengthAdjust="spacing" textLength="69.0771" x="336.61" y="457.362">+id: UUID</text><text fill="#000000" font-family="sans-serif" font-size="14" lengthAdjust="spacing" textLength="142.7754" x="336.61" y="473.6589">+nosaukums: String</text><text fill="#000000" font-family="sans-serif" font-size="14" lengthAdjust="spacing" textLength="127.4834" x="336.61" y="489.9557">+v&#275;rt&#299;ba: Decimal</text><line style="stroke:#181818;stroke-width:0.5;" x1="331.61" x2="484.3854" y1="497.2575" y2="497.2575"/></g><!--class Selection--><g class="entity" data-qualified-name="Fant.zijas kodols.Sast.vs un izv.les.Selection" data-source-line="49" id="ent0011"><rect fill="#F1F1F1" height="96.8906" rx="2.5" ry="2.5" style="stroke:#181818;stroke-width:0.5;" width="168.5703" x="45.71" y="251.4769"/><ellipse cx="105.3057" cy="267.4769" fill="#ADD1B2" rx="11" ry="11" style="stroke:#181818;stroke-width:1;"/><path d="M108.2745,273.1175 Q107.6963,273.4144 107.0557,273.555 Q106.4151,273.7113 105.712,273.7113 Q103.212,273.7113 101.8838,272.0706 Q100.5713,270.4144 100.5713,267.2894 Q100.5713,264.1644 101.8838,262.5081 Q103.212,260.8519 105.712,260.8519 Q106.4151,260.8519 107.0557,261.0081 Q107.712,261.1644 108.2745,261.4613 L108.2745,264.18 Q107.6495,263.6019 107.0557,263.3363 Q106.462,263.055 105.837,263.055 Q104.4932,263.055 103.8057,264.1331 Q103.1182,265.1956 103.1182,267.2894 Q103.1182,269.3831 103.8057,270.4613 Q104.4932,271.5238 105.837,271.5238 Q106.462,271.5238 107.0557,271.2581 Q107.6495,270.9769 108.2745,270.3988 L108.2745,273.1175 Z " fill="#000000"/><text fill="#000000" font-family="sans-serif" font-size="14" lengthAdjust="spacing" textLength="40.8789" x="125.8057" y="272.3236">Izv&#275;le</text><line style="stroke:#181818;stroke-width:0.5;" x1="46.71" x2="213.2803" y1="283.4769" y2="283.4769"/><text fill="#000000" font-family="sans-serif" font-size="14" lengthAdjust="spacing" textLength="126" x="51.71" y="300.472">+sp&#275;&#316;uNed&#275;&#316;a: Int</text><text fill="#000000" font-family="sans-serif" font-size="14" lengthAdjust="spacing" textLength="128.085" x="51.71" y="316.7689">+kapteinis: Player</text><text fill="#000000" font-family="sans-serif" font-size="14" lengthAdjust="spacing" textLength="156.5703" x="51.71" y="333.0657">+vicekapteinis: Player</text><line style="stroke:#181818;stroke-width:0.5;" x1="46.71" x2="213.2803" y1="340.3675" y2="340.3675"/></g><!--class Transfer--><g class="entity" data-qualified-name="Fant.zijas kodols.Sast.vs un izv.les.Transfer" data-source-line="55" id="ent0012"><rect fill="#F1F1F1" height="96.8906" rx="2.5" ry="2.5" style="stroke:#181818;stroke-width:0.5;" width="132.8115" x="249.59" y="251.4769"/><ellipse cx="283.697" cy="267.4769" fill="#ADD1B2" rx="11" ry="11" style="stroke:#181818;stroke-width:1;"/><path d="M286.6657,273.1175 Q286.0876,273.4144 285.447,273.555 Q284.8064,273.7113 284.1032,273.7113 Q281.6032,273.7113 280.2751,272.0706 Q278.9626,270.4144 278.9626,267.2894 Q278.9626,264.1644 280.2751,262.5081 Q281.6032,260.8519 284.1032,260.8519 Q284.8064,260.8519 285.447,261.0081 Q286.1032,261.1644 286.6657,261.4613 L286.6657,264.18 Q286.0407,263.6019 285.447,263.3363 Q284.8532,263.055 284.2282,263.055 Q282.8845,263.055 282.197,264.1331 Q281.5095,265.1956 281.5095,267.2894 Q281.5095,269.3831 282.197,270.4613 Q282.8845,271.5238 284.2282,271.5238 Q284.8532,271.5238 285.447,271.2581 Q286.0407,270.9769 286.6657,270.3988 L286.6657,273.1175 Z " fill="#000000"/><text fill="#000000" font-family="sans-serif" font-size="14" lengthAdjust="spacing" textLength="58.3516" x="301.943" y="272.3236">Transfer</text><line style="stroke:#181818;stroke-width:0.5;" x1="250.59" x2="381.4015" y1="283.4769" y2="283.4769"/><text fill="#000000" font-family="sans-serif" font-size="14" lengthAdjust="spacing" textLength="69.0771" x="255.59" y="300.472">+id: UUID</text><text fill="#000000" font-family="sans-serif" font-size="14" lengthAdjust="spacing" textLength="120.8115" x="255.59" y="316.7689">+laiks: DateTime</text><text fill="#000000" font-family="sans-serif" font-size="14" lengthAdjust="spacing" textLength="104.1182" x="255.59" y="333.0657">+izmaksas: Int</text><line style="stroke:#181818;stroke-width:0.5;" x1="250.59" x2="381.4015" y1="340.3675" y2="340.3675"/></g><!--class Bonus--><g class="entity" data-qualified-name="Fant.zijas kodols.Sast.vs un izv.les.Bonus" data-source-line="61" id="ent0013"><rect fill="#F1F1F1" height="80.5938" rx="2.5" ry="2.5" style="stroke:#181818;stroke-width:0.5;" width="168.0371" x="416.98" y="259.6269"/><ellipse cx="471.4966" cy="275.6269" fill="#ADD1B2" rx="11" ry="11" style="stroke:#181818;stroke-width:1;"/><path d="M474.4654,281.2675 Q473.8872,281.5644 473.2466,281.705 Q472.606,281.8613 471.9029,281.8613 Q469.4029,281.8613 468.0747,280.2206 Q466.7622,278.5644 466.7622,275.4394 Q466.7622,272.3144 468.0747,270.6581 Q469.4029,269.0019 471.9029,269.0019 Q472.606,269.0019 473.2466,269.1581 Q473.9029,269.3144 474.4654,269.6113 L474.4654,272.33 Q473.8404,271.7519 473.2466,271.4863 Q472.6529,271.205 472.0279,271.205 Q470.6841,271.205 469.9966,272.2831 Q469.3091,273.3456 469.3091,275.4394 Q469.3091,277.5331 469.9966,278.6113 Q470.6841,279.6738 472.0279,279.6738 Q472.6529,279.6738 473.2466,279.4081 Q473.8404,279.1269 474.4654,278.5488 L474.4654,281.2675 Z " fill="#000000"/><text fill="#000000" font-family="sans-serif" font-size="14" lengthAdjust="spacing" textLength="50.5039" x="491.9966" y="280.4736">Bonuss</text><line style="stroke:#181818;stroke-width:0.5;" x1="417.98" x2="584.0171" y1="291.6269" y2="291.6269"/><text fill="#000000" font-family="sans-serif" font-size="14" lengthAdjust="spacing" textLength="88.2383" x="422.98" y="308.622">+tips: String</text><text fill="#000000" font-family="sans-serif" font-size="14" lengthAdjust="spacing" textLength="156.0371" x="422.98" y="324.9189">+aktiviz&#275;ts: DateTime</text><line style="stroke:#181818;stroke-width:0.5;" x1="417.98" x2="584.0171" y1="332.2206" y2="332.2206"/></g><!--class ForecastService--><g class="entity" data-qualified-name="Fant.zijas kodols.Prognozes.ForecastService" data-source-line="68" id="ent0015"><rect fill="#F1F1F1" height="80.5938" rx="2.5" ry="2.5" style="stroke:#181818;stroke-width:0.5;" width="235.6924" x="859.15" y="259.6269"/><ellipse cx="895.7518" cy="275.6269" fill="#ADD1B2" rx="11" ry="11" style="stroke:#181818;stroke-width:1;"/><path d="M898.7205,281.2675 Q898.1424,281.5644 897.5018,281.705 Q896.8611,281.8613 896.158,281.8613 Q893.658,281.8613 892.3299,280.2206 Q891.0174,278.5644 891.0174,275.4394 Q891.0174,272.3144 892.3299,270.6581 Q893.658,269.0019 896.158,269.0019 Q896.8611,269.0019 897.5018,269.1581 Q898.158,269.3144 898.7205,269.6113 L898.7205,272.33 Q898.0955,271.7519 897.5018,271.4863 Q896.908,271.205 896.283,271.205 Q894.9393,271.205 894.2518,272.2831 Q893.5643,273.3456 893.5643,275.4394 Q893.5643,277.5331 894.2518,278.6113 Q894.9393,279.6738 896.283,279.6738 Q896.908,279.6738 897.5018,279.4081 Q898.0955,279.1269 898.7205,278.5488 L898.7205,281.2675 Z " fill="#000000"/><text fill="#000000" font-family="sans-serif" font-size="14" lengthAdjust="spacing" textLength="155.6885" x="914.5521" y="280.4736">Prognoz&#275;&#353;anasServiss</text><line style="stroke:#181818;stroke-width:0.5;" x1="860.15" x2="1093.8424" y1="291.6269" y2="291.6269"/><text fill="#000000" font-family="sans-serif" font-size="14" lengthAdjust="spacing" textLength="117.4551" x="865.15" y="308.622">+modelis: String</text><text fill="#000000" font-family="sans-serif" font-size="14" lengthAdjust="spacing" textLength="223.6924" x="865.15" y="324.9189">+p&#275;d&#275;j&#257;Atjauno&#353;ana: DateTime</text><line style="stroke:#181818;stroke-width:0.5;" x1="860.15" x2="1093.8424" y1="332.2206" y2="332.2206"/></g><!--class PredictedPerformance--><g class="entity" data-qualified-name="Fant.zijas kodols.Prognozes.PredictedPerformance" data-source-line="73" id="ent0016"><rect fill="#F1F1F1" height="96.8906" rx="2.5" ry="2.5" style="stroke:#181818;stroke-width:0.5;" width="208.335" x="886.83" y="408.3669"/><ellipse cx="912.7544" cy="424.3669" fill="#ADD1B2" rx="11" ry="11" style="stroke:#181818;stroke-width:1;"/><path d="M915.7231,430.0075 Q915.145,430.3044 914.5044,430.445 Q913.8637,430.6013 913.1606,430.6013 Q910.6606,430.6013 909.3325,428.9606 Q908.02,427.3044 908.02,424.1794 Q908.02,421.0544 909.3325,419.3981 Q910.6606,417.7419 913.1606,417.7419 Q913.8637,417.7419 914.5044,417.8981 Q915.1606,418.0544 915.7231,418.3513 L915.7231,421.07 Q915.0981,420.4919 914.5044,420.2263 Q913.9106,419.945 913.2856,419.945 Q911.9419,419.945 911.2544,421.0231 Q910.5669,422.0856 910.5669,424.1794 Q910.5669,426.2731 911.2544,427.3513 Q911.9419,428.4138 913.2856,428.4138 Q913.9106,428.4138 914.5044,428.1481 Q915.0981,427.8669 915.7231,427.2888 L915.7231,430.0075 Z " fill="#000000"/><text fill="#000000" font-family="sans-serif" font-size="14" lengthAdjust="spacing" textLength="152.0586" x="929.182" y="429.2136">Prognoz&#275;t&#257;Veiktsp&#275;ja</text><line style="stroke:#181818;stroke-width:0.5;" x1="887.83" x2="1094.165" y1="440.3669" y2="440.3669"/><text fill="#000000" font-family="sans-serif" font-size="14" lengthAdjust="spacing" textLength="127.0117" x="892.83" y="457.362">+sp&#275;l&#275;t&#257;js: Player</text><text fill="#000000" font-family="sans-serif" font-size="14" lengthAdjust="spacing" textLength="126" x="892.83" y="473.6589">+sp&#275;&#316;uNed&#275;&#316;a: Int</text><text fill="#000000" font-family="sans-serif" font-size="14" lengthAdjust="spacing" textLength="196.335" x="892.83" y="489.9557">+paredz&#275;tiePunkti: Decimal</text><line style="stroke:#181818;stroke-width:0.5;" x1="887.83" x2="1094.165" y1="497.2575" y2="497.2575"/></g><!--class TransferCalculator--><g class="entity" data-qualified-name="Fant.zijas kodols.Prognozes.TransferCalculator" data-source-line="79" id="ent0017"><rect fill="#F1F1F1" height="96.8906" rx="2.5" ry="2.5" style="stroke:#181818;stroke-width:0.5;" width="177.4277" x="646.29" y="251.4769"/><ellipse cx="661.29" cy="267.4769" fill="#ADD1B2" rx="11" ry="11" style="stroke:#181818;stroke-width:1;"/><path d="M664.2588,273.1175 Q663.6806,273.4144 663.04,273.555 Q662.3994,273.7113 661.6963,273.7113 Q659.1963,273.7113 657.8681,272.0706 Q656.5556,270.4144 656.5556,267.2894 Q656.5556,264.1644 657.8681,262.5081 Q659.1963,260.8519 661.6963,260.8519 Q662.3994,260.8519 663.04,261.0081 Q663.6963,261.1644 664.2588,261.4613 L664.2588,264.18 Q663.6338,263.6019 663.04,263.3363 Q662.4463,263.055 661.8213,263.055 Q660.4775,263.055 659.79,264.1331 Q659.1025,265.1956 659.1025,267.2894 Q659.1025,269.3831 659.79,270.4613 Q660.4775,271.5238 661.8213,271.5238 Q662.4463,271.5238 663.04,271.2581 Q663.6338,270.9769 664.2588,270.3988 L664.2588,273.1175 Z " fill="#000000"/><text fill="#000000" font-family="sans-serif" font-size="14" lengthAdjust="spacing" textLength="145.4277" x="675.29" y="272.3236">Transf&#275;ruKalkulators</text><line style="stroke:#181818;stroke-width:0.5;" x1="647.29" x2="822.7177" y1="283.4769" y2="283.4769"/><text fill="#000000" font-family="sans-serif" font-size="14" lengthAdjust="spacing" textLength="133.376" x="652.29" y="300.472">+bud&#382;ets: Decimal</text><text fill="#000000" font-family="sans-serif" font-size="14" lengthAdjust="spacing" textLength="140.9502" x="652.29" y="316.7689">+br&#299;vieTransf&#275;ri: Int</text><text fill="#000000" font-family="sans-serif" font-size="14" lengthAdjust="spacing" textLength="139.0977" x="652.29" y="333.0657">+transf&#275;raCena: Int</text><line style="stroke:#181818;stroke-width:0.5;" x1="647.29" x2="822.7177" y1="340.3675" y2="340.3675"/></g><!--class Recommendation--><g class="entity" data-qualified-name="Fant.zijas kodols.Prognozes.Recommendation" data-source-line="86" id="ent0018"><rect fill="#F1F1F1" height="80.5938" rx="2.5" ry="2.5" style="stroke:#181818;stroke-width:0.5;" width="198.6211" x="653.69" y="416.5169"/><ellipse cx="714.4273" cy="432.5169" fill="#ADD1B2" rx="11" ry="11" style="stroke:#181818;stroke-width:1;"/><path d="M717.3961,438.1575 Q716.8179,438.4544 716.1773,438.595 Q715.5367,438.7513 714.8336,438.7513 Q712.3336,438.7513 711.0054,437.1106 Q709.6929,435.4544 709.6929,432.3294 Q709.6929,429.2044 711.0054,427.5481 Q712.3336,425.8919 714.8336,425.8919 Q715.5367,425.8919 716.1773,426.0481 Q716.8336,426.2044 717.3961,426.5013 L717.3961,429.22 Q716.7711,428.6419 716.1773,428.3763 Q715.5836,428.095 714.9586,428.095 Q713.6148,428.095 712.9273,429.1731 Q712.2398,430.2356 712.2398,432.3294 Q712.2398,434.4231 712.9273,435.5013 Q713.6148,436.5638 714.9586,436.5638 Q715.5836,436.5638 716.1773,436.2981 Q716.7711,436.0169 717.3961,435.4388 L717.3961,438.1575 Z " fill="#000000"/><text fill="#000000" font-family="sans-serif" font-size="14" lengthAdjust="spacing" textLength="68.6465" x="734.9273" y="437.3636">Ieteikums</text><line style="stroke:#181818;stroke-width:0.5;" x1="654.69" x2="851.3111" y1="448.5169" y2="448.5169"/><text fill="#000000" font-family="sans-serif" font-size="14" lengthAdjust="spacing" textLength="122.6641" x="659.69" y="465.512">+apraksts: String</text><text fill="#000000" font-family="sans-serif" font-size="14" lengthAdjust="spacing" textLength="186.6211" x="659.69" y="481.8089">+gaid&#257;miePunkti: Decimal</text><line style="stroke:#181818;stroke-width:0.5;" x1="654.69" x2="851.3111" y1="489.1106" y2="489.1106"/></g><!--class User--><g class="entity" data-qualified-name="User" data-source-line="7" id="ent0002"><rect fill="#F1F1F1" height="113.1875" rx="2.5" ry="2.5" style="stroke:#181818;stroke-width:0.5;" width="197.4385" x="386.28" y="44.2969"/><ellipse cx="450.9446" cy="60.2969" fill="#ADD1B2" rx="11" ry="11" style="stroke:#181818;stroke-width:1;"/><path d="M453.9133,65.9375 Q453.3352,66.2344 452.6946,66.375 Q452.0539,66.5313 451.3508,66.5313 Q448.8508,66.5313 447.5227,64.8906 Q446.2102,63.2344 446.2102,60.1094 Q446.2102,56.9844 447.5227,55.3281 Q448.8508,53.6719 451.3508,53.6719 Q452.0539,53.6719 452.6946,53.8281 Q453.3508,53.9844 453.9133,54.2813 L453.9133,57 Q453.2883,56.4219 452.6946,56.1563 Q452.1008,55.875 451.4758,55.875 Q450.1321,55.875 449.4446,56.9531 Q448.7571,58.0156 448.7571,60.1094 Q448.7571,62.2031 449.4446,63.2813 Q450.1321,64.3438 451.4758,64.3438 Q452.1008,64.3438 452.6946,64.0781 Q453.2883,63.7969 453.9133,63.2188 L453.9133,65.9375 Z " fill="#000000"/><text fill="#000000" font-family="sans-serif" font-size="14" lengthAdjust="spacing" textLength="59.6094" x="471.4446" y="65.1436">Lietot&#257;js</text><line style="stroke:#181818;stroke-width:0.5;" x1="387.28" x2="582.7185" y1="76.2969" y2="76.2969"/><text fill="#000000" font-family="sans-serif" font-size="14" lengthAdjust="spacing" textLength="126.3008" x="392.28" y="93.292">+lietot&#257;jaId: UUID</text><text fill="#000000" font-family="sans-serif" font-size="14" lengthAdjust="spacing" textLength="108.3906" x="392.28" y="109.5889">+ePasts: String</text><text fill="#000000" font-family="sans-serif" font-size="14" lengthAdjust="spacing" textLength="185.4385" x="392.28" y="125.8857">+par&#257;d&#257;maisV&#257;rds: String</text><text fill="#000000" font-family="sans-serif" font-size="14" lengthAdjust="spacing" textLength="151.3135" x="392.28" y="142.1826">+izveidots: DateTime</text><line style="stroke:#181818;stroke-width:0.5;" x1="387.28" x2="582.7185" y1="149.4844" y2="149.4844"/></g><!--reverse link Squad to Player--><g class="link" data-entity-1="ent0010" data-entity-2="ent0004" data-link-type="aggregation" data-source-line="93" id="lnk19"><path codeLine="93" d="M497.55,501.5269 C593.33,501.5269 731.76,501.5269 731.76,501.5269 C731.76,501.5269 731.76,533.7569 731.76,564.8669" fill="none" id="Squad-backto-Player" style="stroke:#181818;stroke-width:1;"/><polygon fill="none" points="485.55,501.5269,491.55,505.5269,497.55,501.5269,491.55,497.5269,485.55,501.5269" style="stroke:#181818;stroke-width:1;"/><text fill="#000000" font-family="sans-serif" font-size="13" lengthAdjust="spacing" textLength="8.271" x="493.3359" y="502.1471">1</text><text fill="#000000" font-family="sans-serif" font-size="13" lengthAdjust="spacing" textLength="23.0356" x="704.7717" y="554.0829">1..*</text></g><!--link Player to Team--><g class="link" data-entity-1="ent0004" data-entity-2="ent0006" data-link-type="dependency" data-source-line="94" id="lnk20"><path codeLine="94" d="M753,678.6569 C753,697.9569 753,713.3369 753,731.9669" fill="none" id="Player-to-Team" style="stroke:#181818;stroke-width:1;"/><polygon fill="#181818" points="753,737.9669,757,728.9669,753,732.9669,749,728.9669,753,737.9669" style="stroke:#181818;stroke-width:1;"/><text fill="#000000" font-family="sans-serif" font-size="13" lengthAdjust="spacing" textLength="6.5" x="746.6646" y="698.5692">*</text><text fill="#000000" font-family="sans-serif" font-size="13" lengthAdjust="spacing" textLength="8.271" x="742.3306" y="727.4605">1</text></g><!--reverse link GameWeek to Fixture--><g class="link" data-entity-1="ent0007" data-entity-2="ent0008" data-link-type="aggregation" data-source-line="95" id="lnk21"><path codeLine="95" d="M975,839.6869 C975,860.0269 975,872.9369 975,895.1069" fill="none" id="GameWeek-backto-Fixture" style="stroke:#181818;stroke-width:1;"/><polygon fill="none" points="975,827.6869,971,833.6869,975,839.6869,979,833.6869,975,827.6869" style="stroke:#181818;stroke-width:1;"/><text fill="#000000" font-family="sans-serif" font-size="13" lengthAdjust="spacing" textLength="8.271" x="966.4079" y="847.1588">1</text><text fill="#000000" font-family="sans-serif" font-size="13" lengthAdjust="spacing" textLength="6.5" x="968.665" y="884.3424">*</text></g><!--link Selection to Squad--><g class="link" data-entity-1="ent0011" data-entity-2="ent0010" data-link-type="dependency" data-source-line="96" id="lnk22"><path codeLine="96" d="M130,348.4969 C130,394.8069 130,457.5269 130,457.5269 C130,457.5269 241.95,457.5269 324.19,457.5269" fill="none" id="Selection-to-Squad" style="stroke:#181818;stroke-width:1;"/><polygon fill="#181818" points="330.19,457.5269,321.19,453.5269,325.19,457.5269,321.19,461.5269,330.19,457.5269" style="stroke:#181818;stroke-width:1;"/><text fill="#000000" font-family="sans-serif" font-size="13" lengthAdjust="spacing" textLength="6.5" x="123.614" y="368.4586">*</text><text fill="#000000" font-family="sans-serif" font-size="13" lengthAdjust="spacing" textLength="8.271" x="314.4056" y="453.9534">1</text></g><!--reverse link Transfer to Squad--><g class="link" data-entity-1="ent0012" data-entity-2="ent0010" data-link-type="aggregation" data-source-line="97" id="lnk23"><path codeLine="97" d="M356.51,360.7069 C356.51,379.5969 356.51,389.1769 356.51,408.0669" fill="none" id="Transfer-backto-Squad" style="stroke:#181818;stroke-width:1;"/><polygon fill="none" points="356.51,348.7069,352.51,354.7069,356.51,360.7069,360.51,354.7069,356.51,348.7069" style="stroke:#181818;stroke-width:1;"/><text fill="#000000" font-family="sans-serif" font-size="13" lengthAdjust="spacing" textLength="6.5" x="355.5846" y="368.3459">*</text><text fill="#000000" font-family="sans-serif" font-size="13" lengthAdjust="spacing" textLength="8.271" x="340.7261" y="397.2336">1</text></g><!--reverse link Bonus to Squad--><g class="link" data-entity-1="ent0013" data-entity-2="ent0010" data-link-type="aggregation" data-source-line="98" id="lnk24"><path codeLine="98" d="M451.18,352.3269 C451.18,372.9369 451.18,386.1669 451.18,407.8769" fill="none" id="Bonus-backto-Squad" style="stroke:#181818;stroke-width:1;"/><polygon fill="none" points="451.18,340.3269,447.18,346.3269,451.18,352.3269,455.18,346.3269,451.18,340.3269" style="stroke:#181818;stroke-width:1;"/><text fill="#000000" font-family="sans-serif" font-size="13" lengthAdjust="spacing" textLength="6.5" x="436.4733" y="360.3387">*</text><text fill="#000000" font-family="sans-serif" font-size="13" lengthAdjust="spacing" textLength="8.271" x="448.4633" y="397.3692">1</text></g><!--link User to Squad--><g class="link" data-entity-1="ent0002" data-entity-2="ent0010" data-link-type="association" data-source-line="99" id="lnk25"><path codeLine="99" d="M401.63,157.6769 C401.63,226.8669 401.63,342.5769 401.63,407.9569" fill="none" id="User-Squad" style="stroke:#181818;stroke-width:1;"/><text fill="#000000" font-family="sans-serif" font-size="13" lengthAdjust="spacing" textLength="8.271" x="382.9984" y="177.5867">1</text><text fill="#000000" font-family="sans-serif" font-size="13" lengthAdjust="spacing" textLength="8.271" x="392.255" y="397.4599">1</text></g><!--link ForecastService to PredictedPerformance--><g class="link" data-entity-1="ent0015" data-entity-2="ent0016" data-link-type="dependency" data-source-line="101" id="lnk26"><path codeLine="101" d="M990.84,340.3269 C990.84,360.9369 990.84,380.1669 990.84,401.8769" fill="none" id="ForecastService-to-PredictedPerformance" style="stroke:#181818;stroke-width:1;stroke-dasharray:7,7;"/><polygon fill="#181818" points="990.84,407.8769,994.84,398.8769,990.84,402.8769,986.84,398.8769,990.84,407.8769" style="stroke:#181818;stroke-width:1;"/><text fill="#000000" font-family="sans-serif" font-size="13" lengthAdjust="spacing" textLength="8.271" x="984.4928" y="360.3387">1</text><text fill="#000000" font-family="sans-serif" font-size="13" lengthAdjust="spacing" textLength="6.5" x="984.4493" y="397.3692">*</text></g><!--link ForecastService to Player--><g class="link" data-entity-1="ent0015" data-entity-2="ent0004" data-link-type="dependency" data-source-line="102" id="lnk27"><path codeLine="102" d="M874.75,340.5569 C874.75,423.2869 874.75,603.5269 874.75,603.5269 C874.75,603.5269 852.41,603.5269 823.08,603.5269" fill="none" id="ForecastService-to-Player" style="stroke:#181818;stroke-width:1;stroke-dasharray:7,7;"/><polygon fill="#181818" points="817.08,603.5269,826.08,607.5269,822.08,603.5269,826.08,599.5269,817.08,603.5269" style="stroke:#181818;stroke-width:1;"/><text fill="#000000" font-family="sans-serif" font-size="13" lengthAdjust="spacing" textLength="6.5" x="852.0162" y="360.3056">*</text><text fill="#000000" font-family="sans-serif" font-size="13" lengthAdjust="spacing" textLength="6.5" x="824.8648" y="597.6156">*</text></g><!--link PredictedPerformance to Player--><g class="link" data-entity-1="ent0016" data-entity-2="ent0004" data-link-type="dependency" data-source-line="103" id="lnk28"><path codeLine="103" d="M892.21,505.3469 C892.21,560.0769 892.21,641.5269 892.21,641.5269 C892.21,641.5269 859.49,641.5269 822.9,641.5269" fill="none" id="PredictedPerformance-to-Player" style="stroke:#181818;stroke-width:1;"/><polygon fill="#181818" points="816.9,641.5269,825.9,645.5269,821.9,641.5269,825.9,637.5269,816.9,641.5269" style="stroke:#181818;stroke-width:1;"/><text fill="#000000" font-family="sans-serif" font-size="13" lengthAdjust="spacing" textLength="6.5" x="872.5659" y="524.9524">*</text><text fill="#000000" font-family="sans-serif" font-size="13" lengthAdjust="spacing" textLength="8.271" x="824.7663" y="640.0093">1</text></g><!--link PredictedPerformance to GameWeek--><g class="link" data-entity-1="ent0016" data-entity-2="ent0007" data-link-type="dependency" data-source-line="104" id="lnk29"><path codeLine="104" d="M975,505.5169 C975,570.7969 975,679.4769 975,740.3169" fill="none" id="PredictedPerformance-to-GameWeek" style="stroke:#181818;stroke-width:1;"/><polygon fill="#181818" points="975,746.3169,979,737.3169,975,741.3169,971,737.3169,975,746.3169" style="stroke:#181818;stroke-width:1;"/><text fill="#000000" font-family="sans-serif" font-size="13" lengthAdjust="spacing" textLength="6.5" x="966.3636" y="525.4969">*</text><text fill="#000000" font-family="sans-serif" font-size="13" lengthAdjust="spacing" textLength="8.271" x="966.3596" y="735.432">1</text></g><!--link TransferCalculator to Squad--><g class="link" data-entity-1="ent0017" data-entity-2="ent0010" data-link-type="dependency" data-source-line="105" id="lnk30"><path codeLine="105" d="M649.99,348.5469 C649.99,378.6269 649.99,411.5269 649.99,411.5269 C649.99,411.5269 562.35,411.5269 491.56,411.5269" fill="none" id="TransferCalculator-to-Squad" style="stroke:#181818;stroke-width:1;stroke-dasharray:7,7;"/><polygon fill="#181818" points="485.56,411.5269,494.56,415.5269,490.56,411.5269,494.56,407.5269,485.56,411.5269" style="stroke:#181818;stroke-width:1;"/><text fill="#000000" font-family="sans-serif" font-size="13" lengthAdjust="spacing" textLength="8.271" x="630.047" y="368.1644">1</text><text fill="#000000" font-family="sans-serif" font-size="13" lengthAdjust="spacing" textLength="8.271" x="493.3468" y="403.569">1</text></g><!--link TransferCalculator to PredictedPerformance--><g class="link" data-entity-1="ent0017" data-entity-2="ent0016" data-link-type="dependency" data-source-line="106" id="lnk31"><path codeLine="106" d="M767.04,348.8569 C767.04,380.0069 767.04,414.5269 767.04,414.5269 C767.04,414.5269 822.17,414.5269 880.56,414.5269" fill="none" id="TransferCalculator-to-PredictedPerformance" style="stroke:#181818;stroke-width:1;stroke-dasharray:7,7;"/><polygon fill="#181818" points="886.56,414.5269,877.56,410.5269,881.56,414.5269,877.56,418.5269,886.56,414.5269" style="stroke:#181818;stroke-width:1;"/><text fill="#000000" font-family="sans-serif" font-size="13" lengthAdjust="spacing" textLength="8.271" x="762.8256" y="368.5161">1</text><text fill="#000000" font-family="sans-serif" font-size="13" lengthAdjust="spacing" textLength="6.5" x="872.3535" y="407.7872">*</text></g><!--link TransferCalculator to Recommendation--><g class="link" data-entity-1="ent0017" data-entity-2="ent0018" data-link-type="dependency" data-source-line="107" id="lnk32"><path codeLine="107" d="M710.36,348.7069 C710.36,370.3869 710.36,389.6069 710.36,410.2369" fill="none" id="TransferCalculator-to-Recommendation" style="stroke:#181818;stroke-width:1;stroke-dasharray:7,7;"/><polygon fill="#181818" points="710.36,416.2369,714.36,407.2369,710.36,411.2369,706.36,407.2369,710.36,416.2369" style="stroke:#181818;stroke-width:1;"/><text fill="#000000" font-family="sans-serif" font-size="13" lengthAdjust="spacing" textLength="8.271" x="698.5292" y="368.3459">1</text><text fill="#000000" font-family="sans-serif" font-size="13" lengthAdjust="spacing" textLength="6.5" x="696.8422" y="405.352">*</text></g><!--link Recommendation to Player--><g class="link" data-entity-1="ent0018" data-entity-2="ent0004" data-link-type="dependency" data-source-line="108" id="lnk33"><path codeLine="108" d="M774.24,497.6169 C774.24,517.9469 774.24,536.8569 774.24,559.0269" fill="none" id="Recommendation-to-Player" style="stroke:#181818;stroke-width:1;"/><polygon fill="#181818" points="774.24,565.0269,778.24,556.0269,774.24,560.0269,770.24,556.0269,774.24,565.0269" style="stroke:#181818;stroke-width:1;"/><text fill="#000000" font-family="sans-serif" font-size="13" lengthAdjust="spacing" textLength="6.5" x="771.0712" y="517.0904">*</text><text fill="#000000" font-family="sans-serif" font-size="13" lengthAdjust="spacing" textLength="8.271" x="768.3573" y="554.2624">1</text></g><!--link User to ForecastService--><g class="link" data-entity-1="ent0002" data-entity-2="ent0015" data-link-type="dependency" data-source-line="109" id="lnk34"><path codeLine="109" d="M583.97,101.5269 C727.64,101.5269 977,101.5269 977,101.5269 C977,101.5269 977,195.2569 977,253.2969" fill="none" id="User-to-ForecastService" style="stroke:#181818;stroke-width:1;stroke-dasharray:7,7;"/><polygon fill="#181818" points="977,259.2969,981,250.2969,977,254.2969,973,250.2969,977,259.2969" style="stroke:#181818;stroke-width:1;"/><text fill="#000000" font-family="sans-serif" font-size="13" lengthAdjust="spacing" textLength="8.271" x="591.8641" y="98.0733">1</text><text fill="#000000" font-family="sans-serif" font-size="13" lengthAdjust="spacing" textLength="6.5" x="970.5623" y="248.7041">*</text></g><!--SRC=[ZLNDRXCn4BxlKrWv5hM2Qmz8qAeeQa4HQSjvkZjDdVNQmVOM2Af4Bhn0U07EUGN4oNqHdeInzwVUdnOYHSdEsFu-V_FDhELM89jfB9QeXTijmB1haDPjrdn9_xNRvORz-VQ3NRmzOvagt5O2ArI6WfiaCJcNAz1Gi5I0CQ-irVogj3XDbPppDRBdqH9p0vdwnEM248J1A2EuHFjbXKnfUwEI91p6BWngHXmcPnoj8afBCs5V4qQVPw89mJGxP1SNq-CgZZCmrXooEH6HYof666wJkKq1t5owZSvwURw-HPufl-qOB9xp0fEx95b1ciC2sUGaqYDNcH8jZOhdJC2NckbyvRR2RJjSFG9nd4hRFDuEINYQQkrsAQ7q4obAYXrZoWiG8KZi66lvdQe2P4RmfMGv29HqLztZU8uaisTOBtwSd5G6ohmi1lpSpf20xqRJWL23zGOA_82OjuguN-KxpFnlZ2lBejIcWsrH5_p- -_tFg1A3uq_uPrjgVD0R7x-CSPkAQ-SuIXHK8IuvvlmmQDEMXgE9GtT9N-qv6SnjReFQv1oFtzDw_h64hA9Nh-qHREtwbDnqihPkTpLM-XO91QQMAndGfXMR2CnqnUz8ayFA8ab0m9M17oH8SJpPmJxN8CrrxVlcuOcB2k3vI27uke3SGEI33ifh9KiJ8CA_M4dBLmFH8BVybg-f0yt0GjKtBkLCguLKwtxzJfJ6b2etH-sr2EZrKhUz_maIJ4XrsDGZST3KRalQBztcbLr2ALNOFa8j46i7YiQCfnQp6UfhfQbX-op8LPV8S-iBl8HUnPi1r2_iKswW6OcPFvZZh9IaOjzrFOfDmOz0fAK0gs8Va7FBKn1vbOXLkYgp-zyOYXETxXFqeg7UQ_Vpxbnemd0KPg5FZVDwZwag2Xg1yD0MI5Rs7HRnW9Kcrzb1kHR0_OlYSH7k_9kXQl39YmbJ-_lqUt2mDscqhby64uhixxyCYy8mQOTYkurMrACiUUZZU5-0ITe-ywaAhqbLpJ6CXnUdV-n4axwlVUhWu6KuOCnommrxqORwkcDMZI_nl-iQVP8HPxL41wACBNhiDl_OqtLEqZFIo9LQbPiJUdBz1G00]--></g></svg>